<svg aria-hidden="true" focusable="false" class="govuk-header__logotype-crown" xmlns="http://www.w3.org/2000/svg" viewBox="0 0 1500 550" width="101" height="35">
	<style xmlns="http://www.w3.org/1999/xhtml">.background{fill:#243746;}.bt-all{fill:#f9f8f5;}.bt-editable-text{display: none}.bt-textarea{display: none}.bt-marque{fill:#ff5c35;}</style>
	<path class="logotext bt-all" d="M216.1,124.9c20.7,14.9,35,34.8,43.2,59.7V0H310v412.6h-50.7v-78.1c-8.2,24.9-22.6,44.8-43.2,59.7  c-20.6,14.9-45.8,22.3-75.5,22.3c-27.1,0-51.3-6.3-72.5-19c-21.2-12.6-37.8-30.8-49.9-54.3C6,319.6,0,291.8,0,259.9  s6-59.8,18.1-83.6s28.7-42,49.9-54.7c21.2-12.6,45.3-19,72.5-19C170.3,102.6,195.5,110,216.1,124.9z M80,177.6  c-18.8,19.9-28.1,47.3-28.1,82.2c0,35,9.4,62.4,28.1,82.2c18.8,19.9,43.8,29.8,75,29.8c20.1,0,38-4.6,53.8-13.9  s28.2-22.4,37.1-39.3s13.4-36.5,13.4-58.8s-4.5-42-13.4-59.1s-21.3-30.2-37.1-39.3s-33.7-13.7-53.8-13.7  C123.8,147.8,98.8,157.7,80,177.6z"/>
	<path class="logotext bt-all" d="M556.3,412.6l-79.7-117.1l-71.9,117.1h-56.3l100.4-157.8l-101-148.3h58l77.5,113.7l70.8-113.7h56.3  l-99.8,153.9l103.7,152.2L556.3,412.6L556.3,412.6z"/>
	<path class="logotext bt-all" d="M1097,106.5l-88.1,306.1h-54.6L870,163.4l-84.7,249.3h-55.2l-87-306.1h51.3l65.2,257.6l84.8-257.6h53l85.3,257  l65.8-257h48.5V106.5z"/>
	<path class="bt-all bt-marque" d="M1148.9,314.3h-34.1v34.1v34.1v34.1h34.1c28.2,0,51.1-22.9,51.1-51.1S1177.1,314.3,1148.9,314.3z"/>
</svg>